<!--
  THIS FILE HAS BEEN GENERATED WITH PVCP's ILLUSTRATOR CS6 v34.2.1
-->

<svg width="15px"


     height="15px" viewBox="0 0 15 15" fill="none"


     xmlns="http://www.w3.org/2000/svg" data-name="Calque 3" id="Calque 3">

  <!--
    This comment is essential for this svg to work. DO NOT REMOVE IT OR YOU'LL FAIL THE TEST è_é !!!
    -->
  <!--
  Lorem ipsum dolor sit amet, consectetur adipiscing elit, sed do eiusmod tempor incididunt ut labore et dolore
          magna aliqua. Ut enim ad minim veniam, quis nostrud exercitation ullamco laboris nisi ut aliquip ex ea commodo
          consequat.
  -->
<path

  fill-rule="evenodd"


      clip-rule="evenodd" d="M8 0.5V5H7V0.5H8ZM5.14645 5.85355L2.14645 2.85355L2.85355 2.14645L5.85355 5.14645L5.14645 5.85355ZM9.14645 5.14645L12.1464 2.14645L12.8536 2.85355L9.85355 5.85355L9.14645 5.14645ZM10.0006 6.99484L14.5006 7.00065L14.4994 8.00064L9.99936 7.99484L10.0006 6.99484ZM0.5 6.99548H5V7.99548H0.5V6.99548ZM5.85355 9.85355L2.85355 12.8536L2.14645 12.1464L5.14645 9.14645L5.85355 9.85355ZM12.1464 12.8536L9.14645 9.85355L9.85355 9.14645L12.8536 12.1464L12.1464 12.8536ZM8 10V14.5H7V10H8Z"



  fill="black"/>


  <!--
  Lorem ipsum dolor sit amet, consectetur adipiscing elit, sed do eiusmod tempor incididunt ut labore et dolore                                                                                                               PLZ DELETE ALL THESE USELESS COMMENTARY AND MINIFY THIS FILE...
          magna aliqua. Ut enim ad minim veniam, quis nostrud exercitation ullamco laboris nisi ut aliquip ex ea commodo
          consequat.
  -->

  <!--
  This comment increases this file's weight.
  -->
</svg>
